<svg width="293" height="94" viewBox="0 0 293 94" fill="none" xmlns="http://www.w3.org/2000/svg">
<path d="M73.856 17.664C67.456 8.064 55.424 0 38.784 0C19.584 0 1.664 8.32 1.664 24.192C1.664 51.84 59.136 48.64 59.136 67.712C59.136 74.88 51.072 80 37.76 80C25.984 80 16.768 76.032 11.904 67.072L0 72.576C7.168 85.504 18.816 93.44 36.48 93.44C58.496 93.44 76.032 84.224 76.032 66.688C76.032 35.712 17.024 37.376 17.024 23.424C17.024 16.256 26.624 12.288 36.352 12.288C48.768 12.288 57.472 17.024 62.08 23.296L73.856 17.664Z" fill="white"/>
<path d="M89.566 78.208V1.92H75.486V91.52H142.982V78.208H89.566Z" fill="white"/>
<path d="M138.136 91.52H152.136L163.352 59.776L198.2 69.776L206.488 91.392L221.636 91.52L187.032 1.664H169.88L138.136 91.52ZM194.024 58.512L165.144 48.512L176.664 21.248C177.816 18.816 177.176 15.36 177.176 12.672H179.736C179.736 15.36 179.224 18.816 180.248 21.248L194.024 58.512Z" fill="white"/>
<path d="M274.731 45.312C271.659 44.16 267.435 44.928 264.235 44.928V42.368C267.435 42.368 271.659 43.136 274.731 42.112C283.947 38.656 287.531 33.536 287.531 24.192C287.531 5.12 273.195 1.92 255.019 1.92H221.611V91.52H235.691V91.648C243.243 91.648 252.459 91.776 255.915 91.776C278.571 91.776 292.139 88.064 292.139 66.56C292.139 53.76 283.691 48.512 274.731 45.312ZM235.691 36.864V13.696H251.947C264.491 13.696 273.067 13.824 273.067 24.704C273.067 35.84 263.595 36.864 251.947 36.864H235.691ZM235.691 80.128V50.944H237.227C242.091 51.072 247.083 51.072 249.387 51.072C264.747 51.072 277.803 50.816 277.803 66.176C277.803 80.512 267.179 80.128 252.843 80.128H235.691Z" fill="white"/>
</svg>
